<svg width="20" height="20" viewBox="0 0 20 20" fill="none" xmlns="http://www.w3.org/2000/svg">
<g clip-path="url(#clip0_655_1380)">
<path fill-rule="evenodd" clip-rule="evenodd" d="M3.33341 9.99935C3.33353 8.71639 3.70384 7.46072 4.3999 6.383C5.09597 5.30528 6.08821 4.4513 7.25759 3.92353C8.42696 3.39575 9.72378 3.2166 10.9924 3.40758C12.2611 3.59855 13.4477 4.15154 14.4099 5.00018C15.3721 5.84882 16.0689 6.95707 16.4169 8.19194C16.7648 9.42681 16.7491 10.7359 16.3715 11.962C15.9939 13.1881 15.2706 14.2793 14.2882 15.1045C13.3059 15.9297 12.1063 16.454 10.8334 16.6143V11.666H12.5001C12.7211 11.666 12.9331 11.5782 13.0893 11.4219C13.2456 11.2657 13.3334 11.0537 13.3334 10.8327C13.3334 10.6117 13.2456 10.3997 13.0893 10.2434C12.9331 10.0871 12.7211 9.99935 12.5001 9.99935H10.8334V8.33268C10.8334 8.11167 10.9212 7.89971 11.0775 7.74343C11.2338 7.58715 11.4457 7.49935 11.6667 7.49935H12.0834C12.3044 7.49935 12.5164 7.41155 12.6727 7.25527C12.8289 7.09899 12.9167 6.88703 12.9167 6.66602C12.9167 6.445 12.8289 6.23304 12.6727 6.07676C12.5164 5.92048 12.3044 5.83268 12.0834 5.83268H11.6667C11.0037 5.83268 10.3678 6.09607 9.89898 6.56492C9.43014 7.03376 9.16675 7.66964 9.16675 8.33268V9.99935H7.50008C7.27907 9.99935 7.06711 10.0871 6.91083 10.2434C6.75455 10.3997 6.66675 10.6117 6.66675 10.8327C6.66675 11.0537 6.75455 11.2657 6.91083 11.4219C7.06711 11.5782 7.27907 11.666 7.50008 11.666H9.16675V16.6143C7.55566 16.4112 6.0741 15.6271 5.00008 14.4091C3.92607 13.1912 3.33344 11.6232 3.33341 9.99935ZM10.0001 18.3327C14.6026 18.3327 18.3334 14.6018 18.3334 9.99935C18.3334 5.39685 14.6026 1.66602 10.0001 1.66602C5.39758 1.66602 1.66675 5.39685 1.66675 9.99935C1.66675 14.6018 5.39758 18.3327 10.0001 18.3327Z" fill="white"/>
</g>
<defs>
<clipPath id="clip0_655_1380">
<rect width="20" height="20" fill="white"/>
</clipPath>
</defs>
</svg>
