<svg width="20" height="20" viewBox="0 0 20 20" fill="none" xmlns="http://www.w3.org/2000/svg">
<path d="M17.2221 6.66667C15.9879 3.88889 13.8268 2.5 10.7407 2.5C6.11103 2.5 3.33325 4.81481 3.33325 10.8333C3.33325 16.8519 6.57399 19.1667 10.7407 19.1667C14.9073 19.1667 17.2221 16.3889 17.2221 14.537C17.2221 12.6852 16.2962 9.90741 10.7407 9.90741C8.42584 9.90741 7.96288 11.0648 7.96288 12.2222C7.96288 13.6111 8.88881 14.537 10.2777 14.537C12.5925 14.537 13.5184 13.1481 13.5184 9.90741C13.5184 6.66667 11.6666 6.2037 10.7407 6.2037C9.81473 6.2037 9.04344 6.51204 8.42584 7.12963" stroke="white" stroke-linecap="round" stroke-linejoin="round"/>
</svg>
