<svg width="20" height="20" viewBox="0 0 20 20" fill="none" xmlns="http://www.w3.org/2000/svg">
<path d="M5.71436 13.4278C4.69427 14.2291 3.52343 14.8169 2.27151 15.1564C2.13361 15.2065 2.01447 15.2977 1.93028 15.4179C1.84608 15.538 1.80092 15.6811 1.80092 15.8278C1.80092 15.9745 1.84608 16.1177 1.93028 16.2378C2.01447 16.3579 2.13361 16.4492 2.27151 16.4993C12.1572 20.5564 18.4429 14.285 17.4858 7.32784L19.0858 4.01355H17.2286C14.9144 1.17069 8.77151 1.31355 9.78579 7.37069C9.78579 7.37069 6.50008 7.95641 2.30008 3.82784C2.20292 3.73192 2.08031 3.66585 1.94677 3.63746C1.81323 3.60907 1.67435 3.61955 1.54658 3.66765C1.41881 3.71575 1.3075 3.79947 1.22583 3.90887C1.14417 4.01828 1.09557 4.1488 1.08579 4.28498C0.641694 6.11048 0.86394 8.03455 1.71251 9.71074C2.56108 11.3869 3.98021 12.7051 5.71436 13.4278Z" stroke="white" stroke-linecap="round" stroke-linejoin="round"/>
</svg>
