<svg width="20" height="20" viewBox="0 0 20 20" fill="none" xmlns="http://www.w3.org/2000/svg">
<path d="M18.8333 9.625C18.8333 9.58203 18.8333 9.5332 18.8313 9.47656C18.8293 9.31836 18.8254 9.14062 18.8215 8.95117C18.8059 8.40625 18.7786 7.86328 18.7356 7.35156C18.677 6.64648 18.5911 6.05859 18.4739 5.61719C18.3502 5.15654 18.1078 4.73642 17.7709 4.39882C17.434 4.06122 17.0143 3.81796 16.554 3.69336C16.0012 3.54492 14.9192 3.45312 13.3958 3.39648C12.6711 3.36914 11.8958 3.35156 11.1204 3.3418C10.8489 3.33789 10.5969 3.33594 10.3704 3.33398H9.79614C9.56958 3.33594 9.31763 3.33789 9.04614 3.3418C8.27075 3.35156 7.49536 3.36914 6.77075 3.39648C5.24731 3.45508 4.16333 3.54687 3.61255 3.69336C3.152 3.81766 2.73222 4.06081 2.39525 4.39846C2.05829 4.73611 1.81599 5.15639 1.69263 5.61719C1.57349 6.05859 1.4895 6.64648 1.43091 7.35156C1.38794 7.86328 1.3606 8.40625 1.34497 8.95117C1.33911 9.14062 1.33716 9.31836 1.33521 9.47656C1.33521 9.5332 1.33325 9.58203 1.33325 9.625V9.73437C1.33325 9.77734 1.33325 9.82617 1.33521 9.88281C1.33716 10.041 1.34106 10.2187 1.34497 10.4082C1.3606 10.9531 1.38794 11.4961 1.43091 12.0078C1.4895 12.7129 1.57544 13.3008 1.69263 13.7422C1.94263 14.6777 2.677 15.416 3.61255 15.666C4.16333 15.8145 5.24731 15.9062 6.77075 15.9629C7.49536 15.9902 8.27075 16.0078 9.04614 16.0176C9.31763 16.0215 9.56958 16.0234 9.79614 16.0254H10.3704C10.5969 16.0234 10.8489 16.0215 11.1204 16.0176C11.8958 16.0078 12.6711 15.9902 13.3958 15.9629C14.9192 15.9043 16.0032 15.8125 16.554 15.666C17.4895 15.416 18.2239 14.6797 18.4739 13.7422C18.593 13.3008 18.677 12.7129 18.7356 12.0078C18.7786 11.4961 18.8059 10.9531 18.8215 10.4082C18.8274 10.2187 18.8293 10.041 18.8313 9.88281C18.8313 9.82617 18.8333 9.77734 18.8333 9.73437V9.625ZM17.427 9.72656C17.427 9.76758 17.427 9.8125 17.425 9.86523C17.4231 10.0176 17.4192 10.1855 17.4153 10.3672C17.4016 10.8867 17.3743 11.4062 17.3333 11.8887C17.2805 12.5176 17.2063 13.0332 17.1145 13.3789C16.9934 13.8301 16.6379 14.1875 16.1887 14.3066C15.7786 14.416 14.7454 14.5039 13.3411 14.5566C12.6301 14.584 11.8645 14.6016 11.1008 14.6113C10.8333 14.6152 10.5852 14.6172 10.3625 14.6172H9.80396L9.06567 14.6113C8.302 14.6016 7.53833 14.584 6.82544 14.5566C5.42114 14.502 4.38599 14.416 3.97778 14.3066C3.52856 14.1855 3.1731 13.8301 3.052 13.3789C2.96021 13.0332 2.88599 12.5176 2.83325 11.8887C2.79224 11.4062 2.76685 10.8867 2.75122 10.3672C2.74536 10.1855 2.74341 10.0156 2.74146 9.86523C2.74146 9.8125 2.7395 9.76563 2.7395 9.72656V9.63281C2.7395 9.5918 2.7395 9.54688 2.74146 9.49414C2.74341 9.3418 2.74731 9.17383 2.75122 8.99219C2.76489 8.47266 2.79224 7.95312 2.83325 7.4707C2.88599 6.8418 2.96021 6.32617 3.052 5.98047C3.1731 5.5293 3.52856 5.17188 3.97778 5.05273C4.38794 4.94336 5.42114 4.85547 6.82544 4.80273C7.53638 4.77539 8.302 4.75781 9.06567 4.74805C9.33325 4.74414 9.5813 4.74219 9.80396 4.74219H10.3625L11.1008 4.74805C11.8645 4.75781 12.6282 4.77539 13.3411 4.80273C14.7454 4.85742 15.7805 4.94336 16.1887 5.05273C16.6379 5.17383 16.9934 5.5293 17.1145 5.98047C17.2063 6.32617 17.2805 6.8418 17.3333 7.4707C17.3743 7.95312 17.3997 8.47266 17.4153 8.99219C17.4211 9.17383 17.4231 9.34375 17.425 9.49414C17.425 9.54688 17.427 9.59375 17.427 9.63281V9.72656ZM8.34497 12.2969L12.8762 9.66016L8.34497 7.0625V12.2969Z" fill="white"/>
</svg>
